<svg width="33" height="40" viewBox="0 0 33 40" fill="none" xmlns="http://www.w3.org/2000/svg">
<path d="M18.3562 5.82192V0H0V40H18.3562V34.1781C14.5959 34.1781 10.9896 32.6842 8.33074 30.0253C5.67183 27.3664 4.17808 23.7603 4.17808 20C4.17808 16.2397 5.67183 12.6334 8.33074 9.97459C10.9896 7.31568 14.5959 5.82192 18.3562 5.82192Z" fill="#C27CF8"/>
<path d="M18.3568 5.82227V34.1784C22.1171 34.1784 25.7234 32.6846 28.3823 30.0257C31.0412 27.3668 32.5349 23.7606 32.5349 20.0004C32.5349 16.2401 31.0412 12.6338 28.3823 9.97494C25.7234 7.31603 22.1171 5.82227 18.3568 5.82227Z" fill="#C27CF8"/>
</svg>
