<svg width="121" height="150" viewBox="0 0 121 150" fill="none" xmlns="http://www.w3.org/2000/svg">
<g clip-path="url(#clip0_223_1501)">
<mask id="mask0_223_1501" style="mask-type:luminance" maskUnits="userSpaceOnUse" x="0" y="0" width="151" height="150">
<path d="M150.5 150L150.5 0L0.5 -6.55671e-06L0.499993 150L150.5 150Z" fill="white"/>
</mask>
<g mask="url(#mask0_223_1501)">
<path fill-rule="evenodd" clip-rule="evenodd" d="M113.75 -1.60639e-06L113.75 20.625L113.75 21L113.754 21C113.954 29.7324 121.095 36.75 129.875 36.75L150.5 36.75L150.5 41.25L129.5 41.25C120.801 41.25 113.75 48.3015 113.75 57C113.75 65.6985 120.801 72.75 129.5 72.75L150.5 72.75L150.5 77.25L129.5 77.25C120.801 77.25 113.75 84.3015 113.75 93C113.75 101.698 120.801 108.75 129.5 108.75L150.5 108.75L150.5 114L129.5 114C120.801 114 113.75 121.051 113.75 129.75L113.75 150L109.25 150L109.25 129C109.25 120.301 102.198 113.25 93.5 113.25C84.8015 113.25 77.75 120.301 77.75 129L77.75 150L73.25 150L73.25 129C73.25 120.301 66.1985 113.25 57.5 113.25C48.8015 113.25 41.75 120.301 41.75 129L41.75 150L37.25 150L37.25 129.75C37.25 121.051 30.1985 114 21.5 114L20.75 114L0.499995 114L0.499995 108.75L21.5 108.75C30.1985 108.75 37.25 101.698 37.25 93C37.25 84.3015 30.1985 77.25 21.5 77.25L0.499997 77.25L0.499997 72.75L21.5 72.75C30.1985 72.75 37.25 65.6985 37.25 57C37.25 48.3015 30.1985 41.25 21.5 41.25L0.499998 41.25L0.499998 36.75L21.125 36.75C29.9052 36.75 37.0468 29.7324 37.2455 21L37.25 21L37.25 20.625L37.25 -4.95031e-06L41.75 -4.75361e-06L41.75 21C41.75 29.6985 48.8015 36.75 57.5 36.75C66.1985 36.75 73.25 29.6985 73.25 21L73.25 -3.3767e-06L77.75 -3.18e-06L77.75 21C77.75 29.6985 84.8015 36.75 93.5 36.75C102.198 36.75 109.25 29.6985 109.25 21L109.25 -1.80309e-06L113.75 -1.60639e-06ZM77.75 57C77.75 65.6985 84.8015 72.75 93.5 72.75C102.198 72.75 109.25 65.6985 109.25 57C109.25 48.3015 102.198 41.25 93.5 41.25C84.8015 41.25 77.75 48.3015 77.75 57ZM77.75 93C77.75 101.698 84.8015 108.75 93.5 108.75C102.198 108.75 109.25 101.698 109.25 93C109.25 84.3015 102.198 77.25 93.5 77.25C84.8015 77.25 77.75 84.3015 77.75 93ZM57.5 72.75C48.8015 72.75 41.75 65.6985 41.75 57C41.75 48.3015 48.8015 41.25 57.5 41.25C66.1985 41.25 73.25 48.3015 73.25 57C73.25 65.6985 66.1985 72.75 57.5 72.75ZM41.75 93C41.75 101.698 48.8015 108.75 57.5 108.75C66.1985 108.75 73.25 101.698 73.25 93C73.25 84.3015 66.1985 77.25 57.5 77.25C48.8015 77.25 41.75 84.3015 41.75 93Z" fill="#DEBAFC"/>
</g>
</g>
<defs>
<clipPath id="clip0_223_1501">
<rect width="150" height="150" fill="white" transform="translate(150.5) rotate(90)"/>
</clipPath>
</defs>
</svg>
