<svg width="120" height="150" viewBox="0 0 120 150" fill="none" xmlns="http://www.w3.org/2000/svg">
<g clip-path="url(#clip0_223_1519)">
<mask id="mask0_223_1519" style="mask-type:luminance" maskUnits="userSpaceOnUse" x="0" y="0" width="151" height="150">
<path d="M0.00012207 0L0.00012207 150H150V0H0.00012207Z" fill="white"/>
</mask>
<g mask="url(#mask0_223_1519)">
<path fill-rule="evenodd" clip-rule="evenodd" d="M32.4419 130.99L32.4418 150H42.5584V130.99C42.5584 123.572 48.5721 117.558 55.9902 117.558H56.0268H75.0001H93.9721H94.0104C101.428 117.558 107.442 123.572 107.442 130.99V150H117.558V130.99C117.558 123.572 123.572 117.558 130.991 117.558H131.027H150V107.442H131.027H130.991C123.572 107.442 117.558 101.429 117.558 94.0103V75V55.9901C117.558 48.5718 123.572 42.5582 130.991 42.5582L131.027 42.5582H150V32.4418H131.027H130.991C123.572 32.4418 117.558 26.4281 117.558 19.01V0L107.442 4.42207e-07V19.01C107.442 26.4281 101.428 32.4419 94.0104 32.4419L93.9736 32.4418H75.0001H56.0268L55.9902 32.4419C48.5721 32.4419 42.5584 26.4282 42.5584 19.01V3.27835e-06L32.4418 3.72056e-06V19.01C32.4419 26.4282 26.4282 32.4419 19.01 32.4419L18.9735 32.4418H0.00012207L0.000122127 42.5582H18.9724L19.01 42.5582C26.4282 42.5582 32.4419 48.5718 32.4419 55.9901L32.4418 75V94.0103C32.4419 101.429 26.4282 107.442 19.01 107.442H18.9735H0.00012207L0.000122127 117.558H18.9724H19.01C26.4282 117.558 32.4419 123.572 32.4419 130.99ZM107.442 75V55.9901C107.442 48.5718 101.428 42.5582 94.0104 42.5582L93.9721 42.5582H75.0001H56.0268L55.9902 42.5582C48.5721 42.5582 42.5584 48.5718 42.5584 55.9901V75V94.0103C42.5584 101.429 48.5721 107.442 55.9902 107.442H56.0268H75.0001H93.9736H94.0104C101.428 107.442 107.442 101.429 107.442 94.0103V75Z" fill="#FA9A82"/>
</g>
</g>
<defs>
<clipPath id="clip0_223_1519">
<rect width="150" height="150" fill="white"/>
</clipPath>
</defs>
</svg>
